<svg width="350" height="189" viewBox="0 0 350 189" fill="none" xmlns="http://www.w3.org/2000/svg">
<path d="M27.0069 168.99C22.4281 168.99 18.4783 167.979 15.1576 165.958C11.8576 163.916 9.31032 161.07 7.5159 157.419C5.74212 153.748 4.85522 149.478 4.85522 144.611C4.85522 139.743 5.74212 135.453 7.5159 131.74C9.31032 128.007 11.806 125.099 15.0029 123.016C18.2205 120.912 21.9743 119.86 26.2644 119.86C28.7395 119.86 31.1836 120.273 33.5968 121.098C36.0099 121.923 38.2065 123.263 40.1866 125.12C42.1666 126.955 43.7445 129.389 44.9201 132.421C46.0958 135.453 46.6836 139.186 46.6836 143.621V146.715H10.0528V140.403H39.2584C39.2584 137.722 38.7222 135.329 37.6497 133.226C36.5978 131.122 35.0921 129.461 33.1327 128.244C31.1939 127.028 28.9045 126.419 26.2644 126.419C23.3562 126.419 20.8399 127.141 18.7155 128.585C16.6117 130.008 14.9926 131.864 13.8582 134.154C12.7238 136.443 12.1566 138.898 12.1566 141.517V145.725C12.1566 149.313 12.7754 152.356 14.0129 154.851C15.2711 157.326 17.0139 159.214 19.2415 160.513C21.469 161.792 24.0575 162.431 27.0069 162.431C28.9251 162.431 30.6576 162.163 32.2045 161.627C33.7721 161.07 35.123 160.245 36.2574 159.152C37.3918 158.038 38.2684 156.656 38.8872 155.006L45.9411 156.986C45.1986 159.379 43.9507 161.482 42.1976 163.297C40.4444 165.092 38.2787 166.494 35.7005 167.505C33.1224 168.495 30.2245 168.99 27.0069 168.99Z" fill="black"/>
<path d="M55.8608 120.479L67.246 139.908L78.6312 120.479H87.0464L71.7011 144.239L87.0464 168H78.6312L67.246 149.561L55.8608 168H47.4456L62.5434 144.239L47.4456 120.479H55.8608Z" fill="black"/>
<path d="M105.35 169.114C102.339 169.114 99.6062 168.547 97.1517 167.412C94.6973 166.257 92.7482 164.597 91.3044 162.431C89.8606 160.245 89.1388 157.605 89.1388 154.511C89.1388 151.788 89.675 149.581 90.7475 147.89C91.8201 146.178 93.2535 144.838 95.0479 143.868C96.8424 142.899 98.8224 142.177 100.988 141.703C103.174 141.208 105.371 140.816 107.578 140.527C110.465 140.156 112.806 139.877 114.601 139.692C116.416 139.485 117.736 139.145 118.561 138.671C119.407 138.196 119.829 137.371 119.829 136.196V135.948C119.829 132.896 118.994 130.524 117.323 128.832C115.673 127.141 113.167 126.295 109.805 126.295C106.32 126.295 103.587 127.059 101.607 128.585C99.6268 130.111 98.2346 131.74 97.4302 133.473L90.5 130.998C91.7376 128.11 93.3876 125.862 95.4501 124.253C97.5333 122.624 99.8021 121.49 102.257 120.85C104.732 120.19 107.165 119.86 109.558 119.86C111.084 119.86 112.837 120.046 114.817 120.417C116.818 120.768 118.747 121.5 120.603 122.614C122.48 123.728 124.037 125.408 125.274 127.657C126.512 129.905 127.131 132.916 127.131 136.691V168H119.829V161.565H119.458C118.963 162.596 118.138 163.7 116.983 164.875C115.828 166.051 114.291 167.051 112.373 167.876C110.455 168.701 108.114 169.114 105.35 169.114ZM106.464 162.555C109.352 162.555 111.785 161.988 113.766 160.853C115.766 159.719 117.272 158.254 118.282 156.46C119.314 154.666 119.829 152.778 119.829 150.798V144.116C119.52 144.487 118.839 144.827 117.787 145.137C116.756 145.425 115.56 145.683 114.199 145.91C112.858 146.116 111.548 146.302 110.27 146.467C109.011 146.611 107.99 146.735 107.207 146.838C105.309 147.086 103.535 147.488 101.885 148.045C100.256 148.581 98.9358 149.396 97.9252 150.489C96.9352 151.562 96.4402 153.026 96.4402 154.882C96.4402 157.419 97.3786 159.337 99.2555 160.637C101.153 161.915 103.556 162.555 106.464 162.555Z" fill="black"/>
<path d="M134.359 168V120.479H141.413V127.904H142.032C143.022 125.367 144.62 123.397 146.827 121.995C149.034 120.572 151.684 119.86 154.778 119.86C157.913 119.86 160.522 120.572 162.605 121.995C164.709 123.397 166.349 125.367 167.525 127.904H168.02C169.236 125.45 171.062 123.501 173.496 122.057C175.929 120.592 178.848 119.86 182.251 119.86C186.5 119.86 189.975 121.191 192.677 123.851C195.379 126.491 196.73 130.606 196.73 136.196V168H189.429V136.196C189.429 132.689 188.47 130.183 186.551 128.678C184.633 127.172 182.375 126.419 179.776 126.419C176.435 126.419 173.846 127.43 172.011 129.451C170.175 131.452 169.257 133.989 169.257 137.062V168H161.832V135.453C161.832 132.751 160.955 130.575 159.202 128.925C157.449 127.254 155.191 126.419 152.427 126.419C150.529 126.419 148.755 126.924 147.105 127.935C145.476 128.946 144.156 130.348 143.145 132.143C142.155 133.916 141.66 135.969 141.66 138.299V168H134.359Z" fill="black"/>
<path d="M203.981 185.82V120.479H211.035V128.028H211.902C212.438 127.203 213.18 126.151 214.129 124.872C215.099 123.573 216.48 122.418 218.275 121.407C220.09 120.376 222.544 119.86 225.638 119.86C229.639 119.86 233.166 120.861 236.219 122.861C239.272 124.862 241.654 127.698 243.366 131.369C245.078 135.041 245.934 139.372 245.934 144.363C245.934 149.396 245.078 153.758 243.366 157.45C241.654 161.121 239.282 163.968 236.25 165.989C233.218 167.99 229.722 168.99 225.762 168.99C222.709 168.99 220.265 168.485 218.43 167.474C216.594 166.443 215.181 165.277 214.191 163.978C213.201 162.658 212.438 161.565 211.902 160.699H211.283V185.82H203.981ZM211.159 144.239C211.159 147.828 211.685 150.994 212.737 153.737C213.789 156.46 215.325 158.595 217.347 160.142C219.368 161.668 221.843 162.431 224.772 162.431C227.824 162.431 230.372 161.627 232.414 160.018C234.476 158.389 236.023 156.202 237.054 153.459C238.106 150.695 238.632 147.622 238.632 144.239C238.632 140.898 238.117 137.887 237.085 135.206C236.075 132.504 234.538 130.369 232.475 128.801C230.434 127.213 227.866 126.419 224.772 126.419C221.802 126.419 219.306 127.172 217.285 128.678C215.264 130.163 213.737 132.246 212.706 134.927C211.675 137.588 211.159 140.692 211.159 144.239Z" fill="black"/>
<path d="M258.274 104.639V168H250.973V104.639H258.274Z" fill="black"/>
<path d="M285.473 168.99C280.894 168.99 276.944 167.979 273.623 165.958C270.323 163.916 267.776 161.07 265.982 157.419C264.208 153.748 263.321 149.478 263.321 144.611C263.321 139.743 264.208 135.453 265.982 131.74C267.776 128.007 270.272 125.099 273.469 123.016C276.686 120.912 280.44 119.86 284.73 119.86C287.205 119.86 289.649 120.273 292.063 121.098C294.476 121.923 296.672 123.263 298.652 125.12C300.632 126.955 302.21 129.389 303.386 132.421C304.562 135.453 305.149 139.186 305.149 143.621V146.715H268.519V140.403H297.724C297.724 137.722 297.188 135.329 296.116 133.226C295.064 131.122 293.558 129.461 291.599 128.244C289.66 127.028 287.37 126.419 284.73 126.419C281.822 126.419 279.306 127.141 277.181 128.585C275.078 130.008 273.458 131.864 272.324 134.154C271.19 136.443 270.622 138.898 270.622 141.517V145.725C270.622 149.313 271.241 152.356 272.479 154.851C273.737 157.326 275.48 159.214 277.707 160.513C279.935 161.792 282.523 162.431 285.473 162.431C287.391 162.431 289.123 162.163 290.67 161.627C292.238 161.07 293.589 160.245 294.723 159.152C295.858 158.038 296.734 156.656 297.353 155.006L304.407 156.986C303.664 159.379 302.417 161.482 300.663 163.297C298.91 165.092 296.745 166.494 294.166 167.505C291.588 168.495 288.69 168.99 285.473 168.99Z" fill="black"/>
<path d="M343.818 131.122L337.26 132.978C336.847 131.885 336.239 130.823 335.434 129.791C334.65 128.739 333.578 127.873 332.217 127.193C330.855 126.512 329.112 126.172 326.988 126.172C324.08 126.172 321.656 126.842 319.718 128.183C317.799 129.503 316.84 131.184 316.84 133.226C316.84 135.041 317.5 136.474 318.82 137.526C320.14 138.578 322.203 139.454 325.008 140.156L332.062 141.888C336.311 142.919 339.477 144.497 341.56 146.622C343.643 148.726 344.685 151.438 344.685 154.758C344.685 157.481 343.901 159.915 342.333 162.06C340.786 164.205 338.621 165.896 335.836 167.134C333.052 168.371 329.814 168.99 326.122 168.99C321.275 168.99 317.263 167.938 314.087 165.834C310.911 163.731 308.9 160.657 308.054 156.615L314.984 154.882C315.644 157.44 316.892 159.358 318.728 160.637C320.584 161.915 323.007 162.555 325.998 162.555C329.401 162.555 332.103 161.833 334.104 160.389C336.125 158.925 337.136 157.172 337.136 155.13C337.136 153.48 336.558 152.098 335.403 150.984C334.248 149.85 332.474 149.004 330.082 148.447L322.162 146.591C317.81 145.56 314.613 143.961 312.571 141.795C310.55 139.609 309.539 136.876 309.539 133.597C309.539 130.915 310.292 128.544 311.797 126.481C313.324 124.418 315.397 122.799 318.016 121.624C320.656 120.448 323.647 119.86 326.988 119.86C331.691 119.86 335.383 120.892 338.064 122.954C340.766 125.017 342.684 127.739 343.818 131.122Z" fill="black"/>
<path d="M181.971 64.5262C181.971 67.3617 181.345 69.7218 180.116 71.5421C178.9 73.3668 177.37 74.7374 175.567 75.6198C173.781 76.5021 171.999 76.9519 170.277 76.9519C167.416 76.9519 165.026 75.9667 163.184 74.0264C161.351 72.0775 160.426 69.4176 160.426 66.1195V36.3125H152.348V66.6121C152.348 70.6598 153.02 74.0693 154.352 76.7506C155.689 79.4276 157.56 81.4664 159.912 82.8071C162.251 84.1221 164.958 84.7902 167.956 84.7902C171.579 84.7902 174.629 83.9293 177.019 82.2331C179.178 80.6826 180.84 78.8023 181.971 76.6392V84.1777H190.049V36.3125H181.971V64.5305V64.5262Z" fill="black"/>
<path d="M140.296 53.9828C138.437 52.6637 136.458 51.6057 134.415 50.839C132.423 50.0894 130.59 49.4897 128.958 49.0571L122.559 47.3353C121.411 47.0354 120.134 46.637 118.772 46.153C117.419 45.6562 116.104 45.018 114.874 44.2641C113.667 43.5017 112.66 42.5467 111.88 41.4203C111.135 40.2938 110.758 38.9232 110.758 37.3427C110.758 35.4452 111.306 33.7275 112.39 32.2412C113.499 30.7378 115.071 29.5386 117.05 28.6777C119.068 27.8082 121.462 27.3669 124.165 27.3669C127.857 27.3669 131.009 28.2064 133.541 29.8683C136.029 31.5002 137.469 33.8261 137.82 36.7816L137.863 37.1585H146.031L146.014 36.7173C145.911 33.4792 144.891 30.5451 142.994 28.0008C141.122 25.4651 138.552 23.4434 135.361 21.9914C132.179 20.5223 128.491 19.7812 124.409 19.7812C120.327 19.7812 116.652 20.5352 113.367 22.0215C110.09 23.4949 107.439 25.5979 105.485 28.2792C103.541 30.952 102.556 34.1259 102.556 37.711C102.556 42.0413 104.046 45.5963 106.98 48.2775C109.872 50.9203 113.842 52.9805 118.781 54.4026L126.495 56.6086C128.667 57.2125 130.718 57.9277 132.59 58.7329C134.419 59.5211 135.914 60.5533 137.032 61.8083C138.115 63.0248 138.668 64.6396 138.668 66.6056C138.668 68.7815 138.021 70.709 136.74 72.3367C135.447 73.9643 133.661 75.2577 131.438 76.1829C129.198 77.0953 126.623 77.5578 123.796 77.5578C121.368 77.5578 119.063 77.1939 116.96 76.4785C114.896 75.7504 113.161 74.6368 111.812 73.1676C110.493 71.6942 109.726 69.8009 109.533 67.5393L109.499 67.1495H100.812L100.847 67.6079C101.095 71.0988 102.183 74.2127 104.081 76.8554C105.995 79.4982 108.647 81.5842 111.966 83.0576C115.29 84.5225 119.273 85.2677 123.801 85.2677C128.658 85.2677 132.851 84.441 136.256 82.8091C139.7 81.1686 142.356 78.9243 144.142 76.1359C145.954 73.3432 146.875 70.1778 146.875 66.7212C146.875 63.7188 146.245 61.1445 145.007 59.0671C143.778 57.0026 142.193 55.2935 140.296 53.9785V53.9828Z" fill="black"/>
<path d="M206.926 24.0038C206.926 22.5389 206.364 21.2711 205.264 20.2345C204.184 19.2022 202.874 18.6797 201.357 18.6797C199.841 18.6797 198.522 19.2022 197.421 20.2388C196.337 21.2753 195.789 22.5432 195.789 24.0081C195.789 25.4729 196.337 26.7365 197.425 27.7773C198.522 28.8096 199.845 29.3321 201.362 29.3321C202.878 29.3321 204.064 28.8567 205.109 27.9229L205.157 27.8801C205.195 27.8459 205.234 27.8116 205.272 27.773L205.426 27.6231C206.429 26.6123 206.934 25.3958 206.934 24.0038H206.926Z" fill="black"/>
<path d="M205.328 36.3047H197.25V84.1703H205.328V36.3047Z" fill="black"/>
<path fill-rule="evenodd" clip-rule="evenodd" d="M73.0798 43.353C77.3202 48.6771 79.8559 55.4104 79.8559 62.7347C79.8559 70.0591 77.2431 76.998 72.8913 82.352L72.5144 82.8146L72.4159 82.2278C72.3302 81.731 72.2317 81.2255 72.116 80.7201C69.9359 71.1428 62.8342 62.9318 51.1452 56.2799C43.2512 51.7996 38.7323 46.4113 37.5459 40.2819C36.7792 36.3199 37.3489 32.3407 38.4497 28.9313C39.5504 25.5261 41.1867 22.6691 42.5787 20.9516L47.1275 15.3919C47.9242 14.4153 49.4191 14.4153 50.2158 15.3919L73.084 43.353H73.0798ZM80.2713 37.7976L49.7917 0.533269C49.2092 -0.177756 48.1212 -0.177756 47.5387 0.533269L17.0634 37.7976L16.9649 37.9218C11.3581 44.8821 8 53.7271 8 63.3558C8 85.7787 26.2081 103.957 48.6652 103.957C71.1223 103.957 89.3304 85.7787 89.3304 63.3558C89.3304 53.7271 85.9724 44.8821 80.3656 37.9261L80.2671 37.8019L80.2713 37.7976ZM24.3577 43.2331L27.0819 39.8964L27.1633 40.5132C27.2275 41.0015 27.3089 41.4898 27.4031 41.9823C29.1678 51.2385 35.4685 58.9526 46.001 64.9278C55.1586 70.1405 60.4913 76.1328 62.0247 82.7033C62.6672 85.4446 62.7785 88.143 62.5001 90.5031L62.483 90.6487L62.3502 90.713C58.2169 92.7304 53.5695 93.8654 48.6609 93.8654C31.438 93.8654 17.4746 79.9277 17.4746 62.7305C17.4746 55.3461 20.0488 48.5657 24.3492 43.2245L24.3577 43.2331Z" fill="black"/>
<path d="M230.267 84V20.6387H237.568V44.0279H238.187C238.723 43.2029 239.466 42.151 240.414 40.8722C241.384 39.5728 242.766 38.4178 244.56 37.4071C246.375 36.3759 248.829 35.8602 251.923 35.8602C255.925 35.8602 259.452 36.8606 262.504 38.8612C265.557 40.8619 267.939 43.6979 269.651 47.3692C271.363 51.0405 272.219 55.3719 272.219 60.3632C272.219 65.3958 271.363 69.7581 269.651 73.4501C267.939 77.1214 265.567 79.9677 262.535 81.989C259.503 83.9897 256.007 84.99 252.047 84.99C248.994 84.99 246.55 84.4847 244.715 83.474C242.879 82.4428 241.466 81.2774 240.476 79.978C239.486 78.658 238.723 77.5648 238.187 76.6986H237.32V84H230.267ZM237.444 60.2395C237.444 63.8283 237.97 66.9943 239.022 69.7375C240.074 72.4601 241.611 74.5948 243.632 76.1417C245.653 77.668 248.128 78.4311 251.057 78.4311C254.11 78.4311 256.657 77.6267 258.699 76.0179C260.761 74.3885 262.308 72.2022 263.339 69.4591C264.391 66.6952 264.917 63.6221 264.917 60.2395C264.917 56.8982 264.402 53.8869 263.37 51.2056C262.36 48.5036 260.823 46.3689 258.761 44.8014C256.719 43.2132 254.151 42.4191 251.057 42.4191C248.087 42.4191 245.591 43.1719 243.57 44.6776C241.549 46.1626 240.022 48.2458 238.991 50.9271C237.96 53.5878 237.444 56.6919 237.444 60.2395Z" fill="black"/>
<path d="M280.29 101.82C279.052 101.82 277.949 101.717 276.979 101.511C276.01 101.325 275.34 101.14 274.969 100.954L276.825 94.5189C278.599 94.9727 280.166 95.1377 281.527 95.014C282.889 94.8902 284.095 94.2818 285.147 93.1886C286.22 92.1161 287.199 90.3732 288.086 87.9601L289.448 84.2475L271.875 36.479H279.795L292.913 74.3473H293.408L306.525 36.479H314.446L294.274 90.9301C293.366 93.3845 292.242 95.4161 290.902 97.0249C289.561 98.6543 288.004 99.8609 286.23 100.645C284.477 101.428 282.497 101.82 280.29 101.82Z" fill="black"/>
</svg>
